<svg width="119" height="91" viewBox="0 0 119 91" fill="none" xmlns="http://www.w3.org/2000/svg">
<g clip-path="url(#clip0_6_7)">
<path d="M79.6393 72.1356L40.3263 90.1401L1.18296 72.2133L40.496 54.2088L79.6393 72.1356Z" fill="#FE9879"/>
<path d="M79.6608 72.1451L40.3478 90.1497L40.3478 54.1406L79.6608 36.1361L79.6608 72.1451Z" fill="#D76B4A"/>
<path d="M78.9887 1.02876L39.6757 19.0333L39.6757 54.8869L78.9887 36.8824L78.9887 1.02876Z" fill="#3ABCD4"/>
<path d="M83.392 61.5417V63.8137H80.032V81.4457H77.568C76.928 80.1657 76.0427 78.9923 74.912 77.9257C73.8027 76.8377 72.5227 75.9203 71.072 75.1737C69.6213 74.427 68.0747 73.9257 66.432 73.6697L65.184 70.5977C67.232 69.3603 69.344 68.2403 71.52 67.2377C73.7173 66.235 75.9787 65.3817 78.304 64.6777L77.568 66.0217V63.8137H63.68V61.5417H83.392ZM77.568 66.2777L78.24 67.1737C76.6187 67.707 74.912 68.3683 73.12 69.1577C71.328 69.9257 69.6747 70.779 68.16 71.7177C69.312 71.9737 70.5387 72.411 71.84 73.0297C73.1413 73.6483 74.3467 74.427 75.456 75.3657C76.5653 76.3043 77.4187 77.3923 78.016 78.6297H77.728C77.6853 78.139 77.6427 77.6483 77.6 77.1577C77.5787 76.667 77.568 76.0803 77.568 75.3977V66.2777ZM71.7025 84.0057C72.5345 83.6003 73.3878 83.2057 74.2625 82.8217C75.1372 82.4377 76.0332 82.0537 76.9505 81.6697C77.8678 81.307 78.7852 80.9657 79.7025 80.6457L80.5345 82.7577C79.7878 82.9923 79.0305 83.2377 78.2625 83.4937C77.4945 83.7497 76.7692 84.0057 76.0865 84.2617C75.3825 84.539 74.7532 84.8163 74.1985 85.0937L73.7825 84.7097C75.4252 84.859 76.8758 85.115 78.1345 85.4777C79.3932 85.8403 80.5132 86.267 81.4945 86.7577C82.4758 87.2483 83.3718 87.7603 84.1825 88.2937L83.0305 90.1177C81.9212 89.4137 80.8332 88.8163 79.7665 88.3257C78.6998 87.8563 77.6012 87.4723 76.4705 87.1737C75.3185 86.8963 74.0918 86.6937 72.7905 86.5657L71.7025 84.0057ZM98.6145 64.5497C100.236 64.5497 101.484 64.923 102.359 65.6697C103.233 66.4163 103.671 67.451 103.671 68.7737C103.671 69.7123 103.415 70.555 102.903 71.3017C102.391 72.027 101.676 72.667 100.759 73.2217C99.8625 73.7763 98.8385 74.2563 97.6865 74.6617L96.7265 72.4217C98.1132 71.9737 99.1905 71.4937 99.9585 70.9817C100.727 70.4697 101.111 69.7657 101.111 68.8697C101.111 68.2083 100.897 67.707 100.471 67.3657C100.044 67.003 99.3932 66.8217 98.5185 66.8217C97.7932 66.8217 97.0998 66.9283 96.4385 67.1417C95.7985 67.355 95.2225 67.6323 94.7105 67.9737C94.2198 68.2937 93.8252 68.635 93.5265 68.9977C93.2492 69.3603 93.1105 69.691 93.1105 69.9897C93.1105 70.267 93.2065 70.5017 93.3985 70.6937C93.6118 70.8857 94.0492 71.035 94.7105 71.1417L94.0705 73.5097C92.8972 73.2963 92.0225 72.923 91.4465 72.3897C90.8705 71.835 90.5825 71.1203 90.5825 70.2457C90.5825 69.5417 90.7958 68.859 91.2225 68.1977C91.6705 67.515 92.2678 66.8963 93.0145 66.3417C93.7612 65.787 94.6145 65.3497 95.5745 65.0297C96.5558 64.7097 97.5692 64.5497 98.6145 64.5497ZM103.991 76.0057C103.991 77.691 103.351 79.0243 102.071 80.0057C100.791 80.9657 99.0625 81.4457 96.8865 81.4457C95.4785 81.4457 94.1345 81.211 92.8545 80.7417C91.5745 80.2723 90.3798 79.5257 89.2705 78.5017C88.1825 77.4563 87.1905 76.0803 86.2945 74.3737C85.3985 72.667 84.6198 70.5763 83.9585 68.1017L86.3905 67.3657C87.1585 70.1177 88.0225 72.347 88.9825 74.0537C89.9638 75.7603 91.0945 77.019 92.3745 77.8297C93.6758 78.619 95.1905 79.0137 96.9185 79.0137C98.2198 79.0137 99.2865 78.7683 100.119 78.2777C100.972 77.787 101.399 77.0083 101.399 75.9417C101.399 75.2163 101.132 74.5977 100.599 74.0857C100.065 73.5737 99.3932 73.1683 98.5825 72.8697L101.142 71.7497C102.06 72.219 102.764 72.827 103.255 73.5737C103.745 74.299 103.991 75.1097 103.991 76.0057ZM106.519 61.5417V63.8137H82.7425V61.5417H106.519Z" fill="#1E1E1E"/>
<path d="M77.787 36.3471V38.9031H66.087V41.1351V41.7111V58.7391H63.315C62.619 57.3231 61.647 55.9911 60.399 54.7431C59.151 53.4951 57.723 52.4511 56.115 51.6111C54.531 50.7471 52.863 50.2071 51.111 49.9911L49.707 46.5351C52.035 45.1911 54.363 43.9911 56.691 42.9351C59.019 41.8791 61.491 40.9431 64.107 40.1271L63.315 41.6391V38.9031H48.015V36.3471H77.787ZM63.315 41.9271L64.071 42.9711C62.847 43.3071 61.575 43.7511 60.255 44.3031C58.959 44.8551 57.687 45.4311 56.439 46.0311C55.215 46.6311 54.087 47.2191 53.055 47.7951C54.399 48.0591 55.779 48.5631 57.195 49.3071C58.635 50.0511 59.943 50.9631 61.119 52.0431C62.319 53.0991 63.207 54.2511 63.783 55.4991L63.495 55.5711C63.447 55.0191 63.399 54.4671 63.351 53.9151C63.327 53.3631 63.315 52.7031 63.315 51.9351V41.9271ZM75.771 48.3711C75.771 49.1631 75.615 49.9191 75.303 50.6391C74.991 51.3351 74.475 51.9111 73.755 52.3671C73.035 52.8231 72.075 53.0511 70.875 53.0511C70.491 53.0511 70.119 53.0391 69.759 53.0151C69.423 52.9911 69.087 52.9431 68.751 52.8711L68.967 50.2791C69.111 50.3031 69.279 50.3271 69.471 50.3511C69.687 50.3511 69.927 50.3511 70.191 50.3511C71.343 50.3511 72.087 50.1351 72.423 49.7031C72.783 49.2471 72.963 48.7071 72.963 48.0831C72.963 46.8111 72.339 45.7311 71.091 44.8431C69.867 43.9311 68.043 43.3071 65.619 42.9711L65.727 40.2711C67.575 40.4631 69.255 40.9311 70.767 41.6751C72.279 42.3951 73.491 43.3311 74.403 44.4831C75.315 45.6111 75.771 46.9071 75.771 48.3711ZM100.994 36.3471V38.9031H97.2141V58.7391H94.4421C93.5301 57.4191 92.4501 56.1831 91.2021 55.0311C89.9541 53.8551 88.5261 52.8471 86.9181 52.0071C85.3341 51.1431 83.5461 50.5311 81.5541 50.1711L80.7261 46.8231L82.5981 48.0831C84.6141 48.4671 86.3781 49.0431 87.8901 49.8111C89.4261 50.5551 90.7461 51.4071 91.8501 52.3671C92.9541 53.3031 93.8421 54.2631 94.5141 55.2471C94.4901 54.6951 94.4661 54.1431 94.4421 53.5911C94.4421 53.0391 94.4421 52.4391 94.4421 51.7911V33.9711H96.3501L97.1781 36.3471H100.994ZM85.0101 36.2391C86.5221 36.2391 87.7821 36.5031 88.7901 37.0311C89.7981 37.5351 90.5541 38.2311 91.0581 39.1191C91.5621 39.9831 91.8141 40.9551 91.8141 42.0351C91.8141 43.9071 91.0341 45.4311 89.4741 46.6071C87.9381 47.7831 85.8141 48.5271 83.1021 48.8391L81.3741 48.4791L80.7261 46.8231C82.7421 46.6791 84.3501 46.3911 85.5501 45.9591C86.7501 45.5031 87.6021 44.9391 88.1061 44.2671C88.6341 43.5711 88.8981 42.8031 88.8981 41.9631C88.8981 40.9311 88.5621 40.1391 87.8901 39.5871C87.2181 39.0351 86.2341 38.7591 84.9381 38.7591C83.7381 38.7591 82.8741 38.9991 82.3461 39.4791C81.8421 39.9351 81.5901 40.4271 81.5901 40.9551C81.5901 41.2911 81.6741 41.6031 81.8421 41.8911C82.0341 42.1791 82.3581 42.4431 82.8141 42.6831L81.2301 44.9151C80.7741 44.6031 80.3541 44.2671 79.9701 43.9071C79.6101 43.5231 79.3221 43.0791 79.1061 42.5751C78.8901 42.0711 78.7821 41.4951 78.7821 40.8471C78.7821 40.0071 79.0221 39.2391 79.5021 38.5431C79.9821 37.8471 80.6901 37.2951 81.6261 36.8871C82.5621 36.4551 83.6901 36.2391 85.0101 36.2391ZM110.553 36.3471V38.9031H106.773V58.7391H104.001V41.8551C103.713 41.0391 103.281 40.3431 102.705 39.7671C102.153 39.1911 101.433 38.9031 100.545 38.9031H100.257V36.3471H100.797C101.373 36.3471 101.973 36.5391 102.597 36.9231C103.221 37.2831 103.725 37.8471 104.109 38.6151C104.085 38.4951 104.061 38.2191 104.037 37.7871C104.013 37.3551 104.001 36.9831 104.001 36.6711V33.9711H105.945L106.737 36.3471H110.553Z" fill="#1E1E1E"/>
<path d="M78.9887 1.00965L39.6757 19.0142L78.9887 37.0187L118.302 19.0142L78.9887 1.00965Z" fill="#4DA1B0"/>
</g>
<defs>
<clipPath id="clip0_6_7">
<rect width="119" height="91" fill="white"/>
</clipPath>
</defs>
</svg>
